<?xml version="1.0" standalone="no"?>
<!DOCTYPE svg PUBLIC "-//W3C//DTD SVG 20010904//EN"
 "http://www.w3.org/TR/2001/REC-SVG-20010904/DTD/svg10.dtd">
<svg version="1.0" xmlns="http://www.w3.org/2000/svg"
 width="1668.000000pt" height="2388.000000pt" viewBox="0 0 1668.000000 2388.000000"
 preserveAspectRatio="xMidYMid meet">

<g transform="translate(0.000000,2388.000000) scale(0.100000,-0.100000)"
fill="#000000" stroke="none">
<path d="M5805 14421 c-49 -21 -49 -26 -1 -243 86 -384 157 -845 201 -1303 18
-191 35 -276 66 -338 44 -87 75 -100 127 -53 52 46 57 80 71 431 6 154 14 304
17 333 5 52 6 54 32 47 62 -15 171 -106 226 -188 56 -86 66 -136 66 -344 0
-176 1 -185 24 -221 13 -21 36 -46 50 -55 49 -32 215 -14 276 31 14 10 37 39
52 63 l27 44 -14 100 c-22 159 -70 310 -134 420 -62 108 -230 274 -276 275 -5
0 -16 4 -24 9 -12 8 4 30 75 106 180 196 213 249 285 467 l41 120 -16 72 c-35
154 -108 201 -358 230 -47 6 -48 5 -73 -38 -29 -50 -32 -93 -9 -180 11 -43 15
-86 11 -146 -8 -134 -57 -243 -191 -425 l-51 -69 -5 319 c-6 366 -6 366 -97
444 -76 65 -159 94 -278 98 -55 1 -109 -1 -120 -6z"/>
<path d="M5027 14181 c-27 -11 -54 -24 -60 -29 -7 -5 -46 -23 -87 -38 -72 -28
-82 -29 -250 -29 -169 0 -175 -1 -178 -21 -4 -28 30 -69 84 -100 24 -14 41
-30 38 -36 -15 -24 -85 -42 -183 -47 -82 -5 -106 -10 -114 -23 -25 -39 39 -97
144 -129 35 -11 65 -22 67 -24 3 -2 -13 -27 -34 -56 -55 -71 -171 -162 -276
-215 -76 -38 -89 -48 -86 -67 4 -28 33 -41 130 -61 97 -20 256 -20 328 -1 30
8 56 15 58 15 1 0 2 -39 2 -88 0 -79 31 -398 46 -464 4 -23 3 -27 -10 -22 -22
8 -20 -4 3 -24 14 -12 21 -32 23 -67 2 -46 0 -51 -31 -72 -38 -26 -25 -31 17
-7 15 9 3 -7 -27 -35 -63 -59 -63 -68 1 -15 51 44 55 38 38 -69 -15 -98 -57
-187 -106 -222 -95 -69 -109 -123 -49 -197 133 -165 165 -223 165 -304 0 -27
8 -38 55 -73 66 -50 85 -84 85 -153 0 -75 16 -122 54 -163 18 -19 31 -36 29
-39 -7 -7 86 -93 107 -99 24 -6 95 29 159 79 24 19 52 34 61 34 21 0 55 -36
69 -73 24 -64 7 -467 -25 -607 l-15 -65 63 -58 c110 -101 269 -194 315 -185
43 8 43 4 -2 1078 l-43 1025 -50 220 c-28 121 -116 510 -197 865 -80 355 -151
651 -158 658 -23 23 -107 24 -160 3z"/>
<path d="M8715 13900 c-57 -14 -84 -29 -101 -55 -40 -62 -44 -116 -44 -695 0
-519 2 -558 19 -596 38 -84 108 -108 236 -79 89 20 93 24 130 150 24 82 27
114 35 347 5 141 14 294 20 340 5 45 10 84 10 85 0 1 13 9 30 18 42 22 107 18
165 -9 109 -51 155 -118 175 -255 15 -99 8 -352 -10 -396 -17 -41 -30 -210
-19 -249 17 -63 42 -75 159 -77 141 -3 157 5 210 116 40 82 56 152 80 344 33
268 24 422 -35 616 -28 92 -92 228 -136 290 -57 79 -154 104 -333 86 -130 -13
-193 -33 -273 -86 l-53 -35 -16 60 c-16 57 -19 60 -62 75 -48 16 -136 18 -187
5z"/>
<path d="M10165 13900 c-57 -14 -84 -29 -101 -55 -40 -62 -44 -116 -44 -695 0
-519 2 -558 19 -596 38 -84 108 -108 236 -79 89 20 93 24 130 150 24 82 27
114 35 347 5 141 14 294 20 340 5 45 10 84 10 85 0 1 13 9 30 18 42 22 107 18
165 -9 109 -51 155 -118 175 -255 15 -99 8 -352 -10 -396 -17 -41 -30 -210
-19 -249 17 -63 42 -75 159 -77 141 -3 157 5 210 116 40 82 56 152 80 344 33
268 24 422 -35 616 -28 92 -92 228 -136 290 -57 79 -154 104 -333 86 -130 -13
-193 -33 -273 -86 l-53 -35 -16 60 c-16 57 -19 60 -62 75 -48 16 -136 18 -187
5z"/>
<path d="M7588 13882 c-151 -51 -252 -148 -298 -286 -77 -234 -61 -788 29
-964 43 -84 138 -144 286 -183 78 -20 114 -24 265 -24 l176 0 76 37 c86 43
181 136 223 218 30 58 49 176 39 244 -9 67 -31 86 -98 86 -72 0 -131 -40 -207
-140 -73 -96 -108 -120 -174 -120 -79 0 -149 40 -200 115 -37 56 -40 64 -40
132 0 39 3 74 7 78 11 12 139 24 248 25 193 0 392 48 447 107 31 32 33 39 33
106 -1 214 -106 413 -265 502 -90 51 -193 74 -354 80 -116 5 -144 3 -193 -13z
m307 -276 c86 -41 125 -97 125 -181 0 -43 -1 -45 -37 -54 -55 -14 -239 -40
-303 -43 l-55 -3 0 100 c1 128 14 155 87 184 70 27 122 26 183 -3z"/>
<path d="M11709 13880 c-53 -10 -102 -44 -127 -89 -46 -81 -67 -292 -37 -364
14 -35 105 -108 308 -246 42 -30 77 -55 77 -57 0 -12 -228 -335 -311 -442 -55
-70 -110 -149 -124 -176 -29 -58 -32 -116 -8 -157 16 -28 19 -28 73 -23 123
13 170 37 317 159 95 79 450 486 575 660 93 129 138 269 141 441 2 85 0 93
-27 132 -39 57 -137 122 -184 122 -19 0 -44 -7 -54 -16 -10 -10 -75 -118 -145
-241 -125 -218 -128 -223 -140 -196 -7 16 -42 100 -77 187 -84 203 -144 297
-197 308 -13 3 -40 2 -60 -2z"/>
<path d="M6445 12286 c-16 -7 -38 -23 -48 -34 -18 -20 -19 -56 -15 -894 4
-828 5 -876 23 -931 16 -49 26 -62 60 -82 66 -38 110 -48 149 -35 77 25 150
145 187 308 21 89 22 111 16 378 -3 156 -3 284 -1 284 2 0 48 -20 101 -45 84
-39 104 -45 162 -45 151 1 297 54 385 143 90 90 128 191 147 388 18 183 -5
251 -120 364 -98 96 -150 121 -319 150 -79 14 -255 10 -458 -10 -47 -4 -56 -2
-110 35 -64 43 -105 50 -159 26z m542 -426 c58 -33 150 -140 182 -211 38 -83
25 -139 -43 -182 -61 -38 -133 -37 -229 3 -40 17 -77 34 -84 38 -15 10 -66
296 -58 323 10 29 73 58 130 58 38 1 63 -7 102 -29z"/>
<path d="M9525 12276 c-65 -21 -98 -42 -147 -94 -59 -63 -84 -113 -98 -194
-14 -82 -4 -163 51 -393 22 -93 49 -224 60 -289 19 -115 19 -128 3 -404 -8
-157 -14 -336 -12 -398 3 -102 5 -115 26 -137 37 -39 118 -69 199 -75 91 -6
125 7 165 65 l30 45 -6 227 -7 226 83 -160 c96 -184 148 -259 219 -315 55 -43
89 -55 191 -65 92 -10 161 8 190 47 20 28 20 35 10 101 -21 137 -99 251 -214
312 -47 25 -205 162 -196 170 61 48 287 245 309 268 50 55 98 163 110 252 10
68 9 90 -5 145 -38 149 -164 214 -282 145 -57 -34 -97 -89 -125 -173 -32 -99
-100 -226 -175 -325 -63 -84 -108 -126 -121 -114 -3 3 7 91 22 194 33 222 41
415 26 608 -11 156 -27 213 -72 268 -58 71 -140 93 -234 63z"/>
<path d="M8240 11749 c-82 -14 -167 -65 -223 -135 -83 -101 -117 -185 -163
-398 -23 -108 -26 -145 -28 -341 -1 -277 10 -335 87 -451 72 -107 94 -118 259
-122 154 -4 366 20 455 53 92 33 165 80 257 167 88 82 126 140 170 265 68 188
-13 517 -184 745 -88 116 -194 189 -302 208 -84 14 -268 19 -328 9z m270 -499
c96 -49 163 -145 176 -252 8 -65 -14 -159 -52 -224 -74 -127 -258 -198 -376
-146 -65 28 -100 90 -106 186 -5 89 35 295 69 357 56 100 180 134 289 79z"/>
<path d="M11130 11749 c-82 -14 -167 -65 -223 -135 -83 -101 -117 -185 -163
-398 -23 -108 -26 -145 -28 -341 -1 -277 10 -335 87 -451 72 -107 94 -118 259
-122 154 -4 366 20 455 53 92 33 165 80 257 167 88 82 126 140 170 265 68 188
-13 517 -184 745 -88 116 -194 189 -302 208 -84 14 -268 19 -328 9z m270 -499
c96 -49 163 -145 176 -252 8 -65 -14 -159 -52 -224 -74 -127 -258 -198 -376
-146 -65 28 -100 90 -106 186 -5 89 35 295 69 357 56 100 180 134 289 79z"/>
</g>
</svg>
